PathFileType	4	(X/Y/Z)	C:/Users/CLatella/Desktop/xsens/test 22settembre2016/Meri Veloce/Meri-002_My MVN System.trc	
DataRate	CameraRate	NumFrames	NumMarkers	Units	OrigDataRate	OrigDataStartFrame	OrigNumFrames	
240.00	240.00	4	64	mm	240.00	299	597	
Frame#	Time	pHipOrigin			pRightASI			pLeftASI			pRightCSI			pLeftCSI			pRightIschialTub			pLeftIschialTub			pSacrum			pL5SpinalProcess			pL3SpinalProcess			pT12SpinalProcess			pPX			pIJ			pT4SpinalProcess			pT8SpinalProcess			pC7SpinalProcess			pTopOfHead			pRightAuricularis			pLeftAuricularis			pBackOfHead			pRightAcromion			pLeftAcromion			pRightArmLatEpicondyle			pRightArmMedEpicondyle			pLeftArmLatEpicondyle			pLeftArmMedEpicondyle			pRightUlnarStyloid			pRightRadialStyloid			pRightOlecranon			pLeftUlnarStyloid			pLeftRadialStyloid			pLeftOlecranon			pRightTopOfHand			pRightPinky			pRightBallHand			pLeftTopOfHand			pLeftPinky			pLeftBallHand			pRightGreaterTrochanter			pRightKneeLatEpicondyle			pRightKneeMedEpicondyle			pRightPatella			pLeftGreaterTrochanter			pLeftKneeLatEpicondyle			pLeftKneeMedEpicondyle			pLeftPatella			pRightLatMalleolus			pRightMedMalleolus			pRightTibialTub			pLeftLatMalleolus			pLeftMedMalleolus			pLeftTibialTub			pRightHeelFoot			pRightFirstMetatarsal			pRightFifthMetatarsal			pRightPivotFoot			pRightHeelCenter			pRightToe			pLeftHeelFoot			pLeftFirstMetatarsal			pLeftFifthMetatarsal			pLeftPivotFoot			pLeftHeelCenter			pLeftToe			
		X1	Y1	Z1	X2	Y2	Z2	X3	Y3	Z3	X4	Y4	Z4	X5	Y5	Z5	X6	Y6	Z6	X7	Y7	Z7	X8	Y8	Z8	X9	Y9	Z9	X10	Y10	Z10	X11	Y11	Z11	X12	Y12	Z12	X13	Y13	Z13	X14	Y14	Z14	X15	Y15	Z15	X16	Y16	Z16	X17	Y17	Z17	X18	Y18	Z18	X19	Y19	Z19	X20	Y20	Z20	X21	Y21	Z21	X22	Y22	Z22	X23	Y23	Z23	X24	Y24	Z24	X25	Y25	Z25	X26	Y26	Z26	X27	Y27	Z27	X28	Y28	Z28	X29	Y29	Z29	X30	Y30	Z30	X31	Y31	Z31	X32	Y32	Z32	X33	Y33	Z33	X34	Y34	Z34	X35	Y35	Z35	X36	Y36	Z36	X37	Y37	Z37	X38	Y38	Z38	X39	Y39	Z39	X40	Y40	Z40	X41	Y41	Z41	X42	Y42	Z42	X43	Y43	Z43	X44	Y44	Z44	X45	Y45	Z45	X46	Y46	Z46	X47	Y47	Z47	X48	Y48	Z48	X49	Y49	Z49	X50	Y50	Z50	X51	Y51	Z51	X52	Y52	Z52	X53	Y53	Z53	X54	Y54	Z54	X55	Y55	Z55	X56	Y56	Z56	X57	Y57	Z57	X58	Y58	Z58	X59	Y59	Z59	X60	Y60	Z60	X61	Y61	Z61	X62	Y62	Z62	X63	Y63	Z63	X64	Y64	Z64	

299	1.242	90.35501	200.45482	928.10580	187.52548	84.64205	962.03278	179.05626	324.08532	957.32209	192.68719	107.19321	1041.21243	185.67127	305.09223	1037.30356	22.90196	148.23634	914.92589	19.39400	247.16079	912.97146	43.44858	199.85345	982.47917	112.95629	202.96050	1029.78650	184.36832	201.65755	1108.51513	254.77807	198.70084	1170.75635	399.30599	201.65755	1103.80445	492.11657	194.69174	1163.89078	400.90963	189.22935	1265.07035	331.15136	194.19060	1223.92699	439.09627	186.82389	1288.42333	675.13182	191.33412	1369.25674	590.79046	123.02914	1326.60997	586.07977	253.47512	1326.76031	553.55597	186.97423	1364.29548	454.88209	25.80856	1265.37103	421.55648	367.68425	1244.47361	326.94181	-11.07513	975.96439	309.15144	47.20711	977.26734	284.49550	381.36529	961.63187	276.07640	320.92816	962.23323	333.25613	26.76072	746.84453	371.99403	52.76973	753.35931	299.47950	2.80637	974.00995	349.34263	342.07614	742.18396	384.07143	314.16281	757.46864	263.24729	367.43368	954.96674	518.87729	23.40310	709.40959	438.94593	5.56262	699.88799	378.80949	31.32107	722.94029	526.04355	380.46324	712.16585	446.41288	394.09417	728.70337	388.98257	355.50662	733.91520	77.92681	53.62166	902.04667	98.07252	71.11135	521.83400	117.81732	142.12246	520.43082	148.18622	98.07252	525.59253	94.61467	350.64559	904.45213	57.53053	363.22413	525.34196	49.61257	290.35880	517.97525	94.31399	320.02611	520.18025	126.23642	56.87905	96.51899	121.52573	119.52118	93.66251	176.14967	110.25015	489.56077	52.21848	380.01222	96.61922	60.33690	317.82111	92.86069	119.77175	333.45659	487.85691	89.85387	86.89716	-0.20045	233.63009	120.22278	8.21865	233.93077	53.47132	8.97035	252.67330	87.84932	9.77217	129.09290	87.19785	6.46467	329.44749	88.30035	13.63093	19.49423	340.12171	0.80182	167.27954	339.82103	4.10932	152.74657	404.91873	3.55807	178.70547	375.60221	4.30978	58.03167	348.74127	5.91342	253.72568	392.34019	4.96126 
300	1.246	90.20467	200.45482	928.10580	187.22480	84.64205	962.38357	178.80570	324.03521	957.62277	192.13594	107.19321	1041.56323	185.17014	305.04212	1037.65436	22.75162	148.23634	914.67533	19.24366	247.21090	912.72089	43.09779	199.85345	982.27871	112.40504	202.96050	1029.88673	183.51638	201.65755	1108.91604	253.62546	198.70084	1171.40783	398.50417	201.50720	1105.10740	490.96396	194.54140	1165.64476	399.30599	189.22935	1266.42342	329.74817	194.19060	1224.92927	437.39241	186.77378	1289.92674	673.02705	191.28401	1371.86265	588.88614	122.97903	1328.86509	584.22556	253.42500	1328.96532	551.55143	186.92412	1366.35014	453.22834	25.65822	1266.62387	420.15329	367.68425	1245.67634	327.09215	-10.77445	976.46552	309.20155	47.45768	977.81859	284.69595	381.16483	962.13300	276.17662	320.72771	962.73437	333.30625	26.71060	747.34567	372.04414	52.71962	753.86045	299.52961	3.10705	974.56120	349.29252	342.17637	742.58487	384.02131	314.26304	757.81943	263.39763	367.23322	955.46788	518.82718	23.35299	709.45971	438.84571	5.51251	700.18867	378.75938	31.27095	723.39132	525.89321	380.56347	712.21596	446.31265	394.19440	728.95394	388.88234	355.55673	734.26599	77.72635	53.62166	902.04667	97.97229	71.11135	521.88411	117.71709	142.12246	520.48093	148.03588	98.07252	525.59253	94.46433	350.69570	904.50224	57.53053	363.22413	525.34196	49.61257	290.30869	517.97525	94.36410	320.02611	520.18025	126.18631	56.92917	96.56911	121.52573	119.52118	93.66251	176.04944	110.20004	489.56077	52.26859	380.01222	96.56911	60.43713	317.77100	92.81058	119.77175	333.45659	487.85691	89.85387	86.89716	-0.20045	233.57997	120.22278	8.21865	233.93077	53.47132	8.97035	252.67330	87.84932	9.82229	129.09290	87.19785	6.46467	329.39738	88.30035	13.68104	19.59446	340.07160	0.80182	167.32966	339.82103	4.05921	152.79668	404.96884	3.55807	178.75558	375.65233	4.25966	58.08178	348.69115	5.91342	253.77580	392.39030	4.96126 
301	1.250	90.05433	200.45482	928.10580	186.92412	84.64205	962.73437	178.55513	324.03521	957.97357	191.53458	107.19321	1041.91402	184.61889	305.04212	1038.00515	22.65139	148.28645	914.42476	19.19355	247.21090	912.47032	42.74699	199.85345	982.12837	111.85379	202.96050	1029.93685	182.61434	201.65755	1109.26684	252.47284	198.70084	1172.05931	397.65224	201.40698	1106.46047	489.86146	194.44117	1167.44885	397.70236	189.22935	1267.77649	328.34499	194.19060	1225.98166	435.68854	186.77378	1291.48027	670.97238	191.23389	1374.51867	586.98182	122.92892	1331.12021	582.32124	253.37489	1331.17032	549.44665	186.87400	1368.40480	451.57459	25.55799	1267.92683	418.75011	367.63413	1246.92918	327.19237	-10.47376	977.06689	309.25167	47.75836	978.36984	284.84629	380.91426	962.63414	276.32696	320.52725	963.23551	333.30625	26.76072	747.89692	372.09425	52.66950	754.36159	299.62984	3.40773	975.11245	349.19229	342.22648	742.98578	383.92109	314.31315	758.17023	263.54797	367.03277	956.01913	518.72695	23.30287	709.45971	438.74548	5.46239	700.43924	378.70926	31.22084	723.84234	525.74287	380.66370	712.26608	446.16231	394.29462	729.15439	388.78212	355.65696	734.61679	77.52590	53.67178	902.04667	97.82195	71.06123	521.88411	117.61686	142.07235	520.48093	147.93565	98.02241	525.64264	94.31399	350.69570	904.50224	57.53053	363.22413	525.34196	49.71279	290.30869	517.97525	94.41422	320.02611	520.18025	126.13619	56.87905	96.56911	121.52573	119.52118	93.71263	175.94921	110.14992	489.61089	52.31871	379.96210	96.56911	60.48724	317.77100	92.81058	119.82187	333.50670	487.80680	89.80376	86.94728	-0.20045	233.57997	120.17266	8.26876	233.88066	53.47132	8.97035	252.62318	87.79921	9.82229	129.04279	87.19785	6.46467	329.39738	88.25023	13.68104	19.64457	340.07160	0.75171	167.37977	339.67069	4.05921	152.94702	404.81850	3.55807	178.85581	375.50198	4.25966	58.18201	348.69115	5.91342	253.87602	392.18985	4.91114 
302	1.254	89.90399	200.50493	928.10580	186.62343	84.64205	963.08516	178.30456	324.08532	958.32436	190.98333	107.14310	1042.31493	184.06763	305.04212	1038.40606	22.55117	148.33656	914.17419	19.09332	247.26102	912.21975	42.39619	199.90357	981.97803	111.35265	202.96050	1029.98696	181.76240	201.65755	1109.61764	251.32023	198.70084	1172.76090	396.85042	201.30675	1107.86366	488.70884	194.34094	1169.25294	396.09872	189.22935	1269.17967	326.94181	194.19060	1226.98393	433.93456	186.77378	1293.03379	668.81749	191.18378	1377.17470	585.07749	122.87880	1333.42544	580.41692	253.32477	1333.42544	547.34188	186.87400	1370.50958	449.92084	25.45776	1269.22978	417.34693	367.63413	1248.18203	327.29260	-10.12297	977.61814	309.30178	48.10916	978.92110	285.04675	380.71381	963.13528	276.47731	320.32680	963.78676	333.35636	26.76072	748.44817	372.14437	52.66950	754.86272	299.67995	3.75853	975.71382	349.14218	342.32671	743.43680	383.87097	314.36327	758.52102	263.69831	366.83231	956.57038	518.62672	23.30287	709.50982	438.59514	5.41228	700.73992	378.65915	31.22084	724.29336	525.54241	380.81404	712.31619	446.06208	394.39485	729.45508	388.68189	355.75719	734.96758	77.32545	53.67178	902.09679	97.72172	71.06123	521.88411	117.56675	142.02224	520.48093	147.83543	97.97229	525.64264	94.16365	350.74581	904.50224	57.58065	363.22413	525.34196	49.76291	290.30869	517.92513	94.41422	320.02611	520.18025	126.08608	56.87905	96.56911	121.52573	119.52118	93.71263	175.84899	110.04969	489.61089	52.36882	379.96210	96.56911	60.58747	317.72088	92.81058	119.87198	333.50670	487.80680	89.80376	86.94728	-0.20045	233.57997	120.17266	8.26876	233.88066	53.42121	9.02047	252.62318	87.79921	9.82229	129.04279	87.19785	6.46467	329.34726	88.20012	13.73115	19.69469	340.12171	0.75171	167.48000	339.62057	4.00910	153.04725	404.76839	3.55807	178.90592	375.45187	4.20955	58.23212	348.69115	5.86330	253.97625	392.08962	4.91114 
